HIERARCHY
ROOT Hips
{
	OFFSET -3.958830 18.904000 13.208200
	CHANNELS 6 Xposition Yposition Zposition Zrotation Yrotation Xrotation 
	JOINT LHipJoint
	{
		OFFSET 0.000000 0.000000 0.000000
		CHANNELS 3 Zrotation Yrotation Xrotation
		JOINT LeftUpLeg
		{
			OFFSET 1.800000 -1.400000 0.085000
			CHANNELS 3 Zrotation Yrotation Xrotation
			JOINT LeftLeg
			{
				OFFSET 2.215000 -6.000000 0.000000
				CHANNELS 3 Zrotation Yrotation Xrotation
				JOINT LeftFoot
				{
					OFFSET 2.500000 -6.900000 0.000000
					CHANNELS 3 Zrotation Yrotation Xrotation
					JOINT LeftToeBase
					{
						OFFSET 0.200000 -0.500000 1.950000
						CHANNELS 3 Zrotation Yrotation Xrotation
						End Site
						{
							OFFSET 0.000000 0.000000 0.000000
						}
					}
				}
			}
		}
	}
	JOINT RHipJoint
	{
		OFFSET 0.000000 0.000000 0.000000
		CHANNELS 3 Zrotation Yrotation Xrotation
		JOINT RightUpLeg
		{
			OFFSET -1.800000 -1.400000 0.085000
			CHANNELS 3 Zrotation Yrotation Xrotation
			JOINT RightLeg
			{
				OFFSET -2.215000 -6.000000 0.000000
				CHANNELS 3 Zrotation Yrotation Xrotation
				JOINT RightFoot
				{
					OFFSET -2.500000 -6.900000 0.000000
					CHANNELS 3 Zrotation Yrotation Xrotation
					JOINT RightToeBase
					{
						OFFSET -0.200000 -0.500000 1.950000
						CHANNELS 3 Zrotation Yrotation Xrotation
						End Site
						{
							OFFSET 0.000000 0.000000 0.000000
						}
					}
				}
			}
		}
	}
	JOINT LowerBack
	{
		OFFSET 0.000000 0.000000 0.000000
		CHANNELS 3 Zrotation Yrotation Xrotation
		JOINT Spine
		{
			OFFSET -0.087000 1.940000 -0.288900
			CHANNELS 3 Zrotation Yrotation Xrotation
			JOINT Spine1
			{
				OFFSET 0.000000 1.950000 0.060000
				CHANNELS 3 Zrotation Yrotation Xrotation
				JOINT Neck
				{
					OFFSET 0.000000 0.000000 0.000000
					CHANNELS 3 Zrotation Yrotation Xrotation
					JOINT Neck1
					{
						OFFSET 0.000000 1.600000 0.340000
						CHANNELS 3 Zrotation Yrotation Xrotation
						JOINT Head
						{
							OFFSET 0.000000 1.667000 -0.240000
							CHANNELS 3 Zrotation Yrotation Xrotation
							End Site
							{
								OFFSET 0.000000 0.000000 0.000000
							}
						}
					}
				}
				JOINT LeftShoulder
				{
					OFFSET 0.000000 0.000000 0.000000
					CHANNELS 3 Zrotation Yrotation Xrotation
					JOINT LeftArm
					{
						OFFSET 2.700000 1.550000 -0.730000
						CHANNELS 3 Zrotation Yrotation Xrotation
						JOINT LeftForeArm
						{
							OFFSET 5.450000 0.000000 0.000000
							CHANNELS 3 Zrotation Yrotation Xrotation
							JOINT LeftHand
							{
								OFFSET 3.450000 0.000000 0.000000
								CHANNELS 3 Zrotation Yrotation Xrotation
								JOINT LeftHandIndex1
								{
									OFFSET 0.750000 0.000000 0.000000
									CHANNELS 3 Zrotation Yrotation Xrotation
									End Site
									{
										OFFSET 0.000000 0.000000 0.000000
									}
								}
							}
						}
					}
				}
				JOINT RightShoulder
				{
					OFFSET 0.000000 0.000000 0.000000
					CHANNELS 3 Zrotation Yrotation Xrotation
					JOINT RightArm
					{
						OFFSET -2.700000 1.550000 -0.730000
						CHANNELS 3 Zrotation Yrotation Xrotation
						JOINT RightForeArm
						{
							OFFSET -5.450000 0.000000 0.000000
							CHANNELS 3 Zrotation Yrotation Xrotation
							JOINT RightHand
							{
								OFFSET -3.450000 0.000000 0.000000
								CHANNELS 3 Zrotation Yrotation Xrotation
								JOINT RightHandIndex1
								{
									OFFSET -0.750000 0.000000 0.000000
									CHANNELS 3 Zrotation Yrotation Xrotation
									End Site
									{
										OFFSET 0.000000 0.000000 0.000000
									}
								}
							}
						}
					}
				}
			}
		}
	}
}
MOTION
Frames: 4
Frame Time: 0.016667
-0.897370 16.889250 3.247000 -16.927398 -54.607319 23.465234 -15.760723 11.970946 4.655719 9.455199 -3.533624 -42.215736 -15.297899 11.746565 26.091374 -0.253714 6.351658 2.077365 0.668110 0.756430 0.404200 18.004342 -9.507362 2.694794 2.629789 -0.430275 -6.875137 9.570946 -3.770510 2.944588 -0.300237 -3.350800 3.182505 0.655680 0.127140 0.133700 -2.785665 -3.016818 -7.639668 -11.088550 7.812834 13.718288 3.849600 8.090652 9.143320 -4.337735 -10.307819 -7.631287 -19.780388 14.846079 20.779107 -4.668280 9.341700 -17.018630 -4.099327 1.030212 2.941582 -14.239815 -10.273890 7.564037 -177.392106 -52.374216 171.006642 -3.948092 3.684043 0.073740 0.203260 0.004450 0.177920 12.186309 11.347377 3.052008 16.846701 19.497827 7.131941 172.194764 49.478221 155.588971 1.730339 -2.250240 -0.076240 0.281830 -0.149870 -0.112980 
-1.000900 16.872540 3.303760 -18.334195 -52.587769 24.428367 -15.717841 12.243181 4.414543 8.018940 -3.461180 -41.478646 -11.723319 10.656087 26.811048 -0.350709 5.900614 2.244820 0.669150 0.755380 0.393830 18.020703 -9.593604 2.734207 3.769274 -0.721289 -6.142044 8.567817 -3.854783 4.199438 -0.306653 -3.368096 3.180660 0.660760 0.143100 0.125960 -2.735984 -3.178805 -7.457160 -11.368247 8.074002 11.987432 4.840164 8.516831 9.696747 -4.503585 -10.212556 -8.274753 -19.537967 14.366961 19.935813 -3.720180 9.172920 -16.680180 -2.390656 3.624113 3.528194 -16.085856 -7.782797 9.962537 -173.228940 -45.104851 160.598795 -3.984801 3.774959 0.080530 0.202670 -0.002780 0.187320 11.070944 8.359928 3.930663 17.435815 12.077093 6.625140 166.038223 45.525913 137.604010 1.790640 -2.345315 -0.087710 0.295720 -0.148830 -0.109980 
-1.092410 16.857870 3.369960 -19.225413 -50.734247 24.262149 -15.674450 12.514542 4.213574 7.085174 -3.243396 -40.473900 -8.710188 9.937487 28.120381 -0.369487 5.668342 2.329214 0.647980 0.721240 0.376660 18.027597 -9.724023 2.719568 4.003115 -0.887757 -5.372896 7.773976 -4.152091 6.810194 -0.318381 -3.432478 3.164310 0.626720 0.131600 0.107050 -2.680904 -3.272212 -7.305385 -11.257906 8.228863 10.849830 5.464443 8.898758 10.491217 -4.392211 -10.262920 -9.066992 -19.844926 14.091746 20.205220 -2.628830 8.787650 -16.118450 -0.527210 5.338506 4.394304 -19.159104 -4.556933 10.693813 -165.217221 -42.081905 139.032705 -3.931973 3.911767 0.107340 0.168950 0.004080 0.184720 9.243612 6.482971 4.685031 19.503135 6.029754 4.888794 157.648179 44.824906 115.967008 1.883301 -2.378836 -0.091480 0.292740 -0.146600 -0.107690 
-1.161410 16.834560 3.457800 -19.181211 -48.720544 23.183626 -15.620849 12.666024 4.112997 5.649789 -3.499662 -40.197322 -5.319116 9.343163 31.154156 -0.332778 5.703141 2.326686 0.615680 0.673970 0.351570 18.049975 -9.908607 2.638404 3.023685 -0.788253 -4.926966 7.639375 -4.676609 10.305933 -0.328199 -3.609346 3.114017 0.585690 0.133640 0.092670 -2.682559 -3.133396 -7.185554 -10.492872 8.368042 10.309239 4.851037 9.245155 10.849476 -3.838606 -9.966348 -9.417197 -19.126376 13.477638 20.493706 -1.550810 8.542900 -15.153600 -0.208492 6.676168 4.464957 -21.313469 -2.133944 9.930242 -161.852044 -40.460316 128.483557 -3.881545 3.992354 0.121770 0.150380 -0.000730 0.183300 7.945654 4.809345 5.256353 21.925251 1.101376 3.097877 149.966860 44.307584 98.087785 1.953502 -2.418489 -0.097090 0.283900 -0.141080 -0.104320 
